# xmcd CD database file
#
# Track frame offsets:
#	150
#	21496
#	39693
#	58643
#	78275
#
# Disc length: 1397 seconds
#
# Revision: 0
# Processed by: cddbd v1.5PL3 Copyright (c) Steve Scherf et al.
# Submitted via: CDex 1.51
#
DISCID=3a057305
DTITLE=Amethystium - Autumn Interlude EP
DYEAR=2000
DGENRE=New Age
TTITLE0=Ilona
TTITLE1=Arcane Voices
TTITLE2=Calantha
TTITLE3=Meadowland
TTITLE4=Autumn Interlude
EXTD=YEAR: 2000
EXTT0=
EXTT1=
EXTT2=
EXTT3=
EXTT4=
PLAYORDER=
